<svg width="146" height="24" viewBox="0 0 146 24" fill="none" xmlns="http://www.w3.org/2000/svg">
<g clip-path="url(#clip0_610_143)">
<path d="M20.6819 0.93457V23.4599H13.412V15.045H7.30782V23.4599H0V0.93457H7.30782V8.74158H13.412V0.93457H20.6819Z" fill="white"/>
<path d="M37.0818 23.4599H22.4951V0.93457H37.4646L40.4608 6.71271L29.7456 6.72215V9.58253H38.0669L36.5649 12.1972L38.2046 14.9594L29.7456 14.9484V17.6723L40.3178 17.6715L37.0818 23.4599Z" fill="white"/>
<path d="M39.123 23.4595L45.4798 12.1969L39.4672 0.962891H47.9788L50.9281 7.40306L53.7677 0.962891H61.4193L56.2743 12.1969L62.6228 23.4595H54.0828L50.702 16.2555L46.8038 23.4595H39.123Z" fill="white"/>
<path d="M63.9121 23.5507V1.00195H78.484V3.21657H66.0957V11.1148H78.484V13.3449H66.0957V23.5507H63.9121Z" fill="white"/>
<path d="M90.6135 23.5507H80.4541V1.00195H82.6842V21.3671H90.6135V23.5507Z" fill="white"/>
<path d="M92.9734 12.1683C92.9734 14.9146 93.8664 17.217 95.6526 19.0754C97.4387 20.9338 99.643 21.863 102.266 21.863C104.826 21.863 106.989 20.9235 108.754 19.0444C110.52 17.1654 111.403 14.8527 111.403 12.1064C111.403 9.54591 110.494 7.33905 108.677 5.48579C106.86 3.63253 104.671 2.7059 102.111 2.7059C101.068 2.7059 100.064 2.88402 99.0984 3.24018C98.133 3.59641 97.2425 4.12038 96.4269 4.81208C95.3532 5.72065 94.5092 6.83052 93.8948 8.14175C93.2805 9.45298 92.9734 10.7951 92.9734 12.1683ZM90.6504 12.1373C90.6504 10.568 90.9524 9.07094 91.5563 7.64616C92.1603 6.22137 93.0353 4.94632 94.1814 3.82096C95.286 2.7369 96.5018 1.92127 97.8285 1.37405C99.1552 0.826832 100.593 0.553223 102.142 0.553223C103.721 0.553223 105.185 0.829392 106.532 1.3818C107.88 1.93414 109.11 2.75752 110.226 3.85189C111.372 4.97726 112.234 6.23687 112.812 7.63072C113.39 9.02451 113.679 10.5267 113.679 12.1373C113.679 13.7377 113.431 15.2063 112.936 16.5434C112.44 17.8803 111.697 19.0961 110.706 20.1904C109.56 21.45 108.264 22.3999 106.818 23.04C105.373 23.6802 103.804 24.0002 102.111 24.0002C98.8687 24.0002 96.1482 22.862 93.9491 20.5853C91.7499 18.3088 90.6504 15.4928 90.6504 12.1373Z" fill="white"/>
<path d="M126.868 1.00195L131.406 19.4932L137.043 1.00195H139.211L132.227 23.5507H130.384L125.862 5.15244L121.324 23.5507H119.481L112.466 1.00195H114.665L120.271 19.4932L124.839 1.00195H126.868Z" fill="white"/>
<path d="M141.337 1.96239H140.592V1.57133H142.513V1.96239H141.769V4H141.337V1.96239ZM142.819 1.57133H143.478L144.126 3.27277L144.782 1.57133H145.433V4H145.022V1.98297H145.015L144.277 4H143.975L143.238 1.98297H143.231V4H142.819V1.57133Z" fill="white"/>
<path fill-rule="evenodd" clip-rule="evenodd" d="M45.65 10.071L46.8561 12.1956L45.5703 14.4351L46.159 14.444L47.4766 12.1956L46.2357 10.0605L45.65 10.071Z" fill="#0C0C0C"/>
<path fill-rule="evenodd" clip-rule="evenodd" d="M36.6273 10.071L35.4213 12.1956L36.707 14.4351L36.1183 14.444L34.8008 12.1956L36.0416 10.0605L36.6273 10.071Z" fill="#0C0C0C"/>
<path fill-rule="evenodd" clip-rule="evenodd" d="M39.5113 9.3999H39.3934L39.3353 9.50247L37.7382 12.3241L37.6807 12.4256L37.7399 12.5262L39.3371 15.2393L39.3957 15.3389H39.5113H42.6524H42.77L42.8281 15.2367L44.3721 12.5236L44.426 12.4289L44.3765 12.3319L42.939 9.51029L42.8828 9.3999H42.7589H39.5113ZM38.1475 12.4217L39.6291 9.80422H42.635L43.9668 12.4183L42.5349 14.9345H39.6269L38.1475 12.4217ZM40.0794 10.5993L39.0567 12.408L40.0748 14.1394H42.0735L43.0614 12.4014L42.1444 10.5993H40.0794ZM42.3923 10.195H39.8435L38.59 12.412L39.8435 14.5437H42.3087L43.5204 12.412L42.3923 10.195ZM40.2724 10.9925H41.919L42.6478 12.3964L41.865 13.7464H40.2724L39.4626 12.3964L40.2724 10.9925ZM40.117 12.3871L40.595 11.5634H41.5688L41.9972 12.3837L41.5354 13.1753H40.5927L40.117 12.3871Z" fill="#BFFF0A"/>
<path d="M38.625 13.2261L42.5199 7.91992L41.4148 11.5476H43.6116L39.3662 17.2192L40.687 13.2261H38.625Z" fill="white"/>
</g>
<defs>
<clipPath id="clip0_610_143">
<rect width="145.794" height="24" fill="white"/>
</clipPath>
</defs>
</svg>
